<svg id="Capa_1" data-name="Capa 1" xmlns="http://www.w3.org/2000/svg" viewBox="0 0 100 100"><defs><style>.cls-1{fill:none;stroke:#fff;stroke-miterlimit:10;}</style></defs><g id="FORK"><polygon class="cls-1" points="53.78 98.19 53.78 98.19 53.78 98.17 53.78 98.17 53.78 98.19"/><path class="cls-1" d="M98.29,50.07A48.29,48.29,0,1,0,47,98.21l0-26a2.12,2.12,0,0,0-1.5-2A16.84,16.84,0,0,1,33.62,54.11V27.22c0-2.68,3.15-4.64,6-2.34a2.09,2.09,0,0,1,.76,1.63V48.62a2.13,2.13,0,0,0,2.13,2.13h2.45a2.13,2.13,0,0,0,2.14-2.13V27.22c0-2.68,3.16-4.64,6-2.34a2.12,2.12,0,0,1,.75,1.64v22.1a2.13,2.13,0,0,0,2.14,2.13h2.45a2.13,2.13,0,0,0,2.13-2.13V26.51a2.09,2.09,0,0,1,.76-1.63c2.81-2.3,6-.34,6,2.34V54.11a16.84,16.84,0,0,1-12,16.09,2.12,2.12,0,0,0-1.5,2V98.17A48.33,48.33,0,0,0,98.29,50.07Z"/></g></svg>