<svg id="Capa_1" data-name="Capa 1" xmlns="http://www.w3.org/2000/svg" viewBox="0 0 100 100"><defs><style>.cls-1{fill:none;stroke:#fff;stroke-miterlimit:10;}</style></defs><g id="FILTROS"><path class="cls-1" d="M94.8,13.62H36.89a11.94,11.94,0,0,0-22.65,0h-9a3.8,3.8,0,0,0,0,7.6h9a11.94,11.94,0,0,0,22.65,0H94.8a3.8,3.8,0,0,0,0-7.6Z"/><path class="cls-1" d="M94.8,46.2h-9a11.94,11.94,0,0,0-22.65,0H5.2a3.8,3.8,0,0,0,0,7.6H63.11a11.94,11.94,0,0,0,22.65,0h9a3.8,3.8,0,0,0,0-7.6Z"/><path class="cls-1" d="M94.8,78.78H53.18a11.94,11.94,0,0,0-22.65,0H5.2a3.8,3.8,0,1,0,0,7.6H30.53a11.94,11.94,0,0,0,22.65,0H94.8a3.8,3.8,0,0,0,0-7.6Z"/></g></svg>