<svg id="Capa_1" data-name="Capa 1" xmlns="http://www.w3.org/2000/svg" viewBox="0 0 100 100"><defs><style>.cls-1{fill:none;stroke:#fff;stroke-miterlimit:10;}</style></defs><path id="HOME" class="cls-1" d="M96.14,43.66h0L56.35,3.86a9,9,0,0,0-12.7,0L3.89,43.63l0,0a9,9,0,0,0,6,15.3h1.86V88.26A10.53,10.53,0,0,0,22.19,98.77H37.76a2.86,2.86,0,0,0,2.86-2.86V73a4.8,4.8,0,0,1,4.79-4.79h9.18A4.81,4.81,0,0,1,59.39,73v23a2.85,2.85,0,0,0,2.85,2.86H77.81A10.53,10.53,0,0,0,88.32,88.26V59h1.47a9,9,0,0,0,6.35-15.32Z"/></svg>