<svg id="Capa_1" data-name="Capa 1" xmlns="http://www.w3.org/2000/svg" viewBox="0 0 143.92 146.29"><defs><style>.cls-1{fill:#111319;}</style></defs><path class="cls-1" d="M10.87,134a44.56,44.56,0,0,1-.78-6.36q-.42-4.8-.42-9.75l.06-2.61-.06-2.13q0-6.1.79-15.7c.1-1,.2-1.93.28-2.89A1.48,1.48,0,0,1,12.18,93,16.24,16.24,0,0,1,14,92.9a14.26,14.26,0,0,1,3.86.52,1.38,1.38,0,0,1,1.25,1.46c-.1,1.18-.24,2.35-.42,3.49q-.36,2.82-.57,5.63l-.21,2.92q-.61,6.94-.62,15.64v6.57a25.55,25.55,0,0,0,.31,4c0,.38.16.57.36.57l2.14-.42c1.32-.27,2.66-.52,4-.73l.52-.1a16.43,16.43,0,0,1,4.22-.52,3.64,3.64,0,0,1,1.83.42c.34.2.52.43.52.67s-.18.44-.52.68a4.3,4.3,0,0,1-1.73.47q-3.86.47-10.63,2c-.52.1-1,.22-1.59.34a7.56,7.56,0,0,1-1.64.18Q11.5,136.69,10.87,134Z"/><path class="cls-1" d="M37.28,135.75a7.42,7.42,0,0,1-3-2.86,15.6,15.6,0,0,1-1.87-6.57l-.21-3.18.1-1.46a35,35,0,0,1,1.1-8.29,20.17,20.17,0,0,1,.88-2.35c1.64-3,4-4.48,7-4.48a8,8,0,0,1,1.51.15,15.38,15.38,0,0,1,4,1.05q3.28,1.56,3.28,4.69a7.05,7.05,0,0,1-.15,1.41,11.72,11.72,0,0,1-9.23,9.54l-.31.1a4.06,4.06,0,0,0-1.33.29.77.77,0,0,0-.34.76A16.18,16.18,0,0,0,41,131.84c.45.77.85,1.15,1.2,1.15s.66-.4,1-1.2a14.19,14.19,0,0,0,1.2-3A1.76,1.76,0,0,1,46,127.41a5.18,5.18,0,0,1,1.2-.15,4.41,4.41,0,0,1,1.56.26.92.92,0,0,1,.73.88,1.14,1.14,0,0,1-.1.42,4.38,4.38,0,0,0-.16.47A17.1,17.1,0,0,1,47.5,133a7.19,7.19,0,0,1-2.82,2.71,7.59,7.59,0,0,1-3.67.94A7.91,7.91,0,0,1,37.28,135.75ZM39.65,121q4.44-2,5.58-7.56l.11-.89a3.84,3.84,0,0,0-1.05-2.66,1.91,1.91,0,0,0-1-.52c-.56,0-1.06.44-1.51,1.31A19.18,19.18,0,0,0,38.82,121c0,.21.07.31.21.31A1.84,1.84,0,0,0,39.65,121Z"/><path class="cls-1" d="M53.13,136.25A2.33,2.33,0,0,1,52,135a10.9,10.9,0,0,1-.6-2.71c-.09-.9-.13-2.06-.13-3.49l.05-3.86v-1.51a75.77,75.77,0,0,1,.88-12.56,1.57,1.57,0,0,1,1.46-1.46,13.51,13.51,0,0,1,1.67-.11,12.73,12.73,0,0,1,3.08.37,1.48,1.48,0,0,1,1.2,1.66c-.14,1.22-.33,2.42-.58,3.6l-.41,2.24a2.8,2.8,0,0,1-.11.71,5.84,5.84,0,0,0-.1,1.33,31.56,31.56,0,0,1,3.18-5.58,6.17,6.17,0,0,1,5.21-2.82c2.75,0,4.29,1.17,4.64,3.5.28,1.49.61,3,1,4.64a1.84,1.84,0,0,1,.11.57c0,.59-.37,1-1.1,1.09a6.08,6.08,0,0,1-1.82.32,4.94,4.94,0,0,1-4.28-2.66l-.78-1.36a81.56,81.56,0,0,0-5.79,15.7c-.94,2.71-2.2,4.06-3.8,4.06A3.92,3.92,0,0,1,53.13,136.25Z"/><path class="cls-1" d="M88.92,137.79a20.38,20.38,0,0,1-1-5.79q-.16-2.61-.21-5.16l-.11-2.5-1,2.6q-2,5.53-4.53,7.15a5.9,5.9,0,0,1-3.08.78,4.57,4.57,0,0,1-4.8-3.55,19,19,0,0,1-.57-4.59l0-1.92a25,25,0,0,1,1.72-7.93,12.64,12.64,0,0,1,3.39-5A7.13,7.13,0,0,1,83.5,110h.83a13.48,13.48,0,0,1,2.19.18,5.64,5.64,0,0,1,2.14.86c.24-1.81,1.09-2.71,2.55-2.71a8,8,0,0,1,1.2.11l.37,0c2,0,3.07.88,3.07,2.55a29.42,29.42,0,0,1-.52,4.59l-.1.83a74.93,74.93,0,0,0-1.15,13.09c0,1.22,0,2.45.11,3.7l0,.89a23.36,23.36,0,0,0,.47,3.23q0,.57-1.83,1.41a4,4,0,0,1-1.72.36A2.09,2.09,0,0,1,88.92,137.79Zm-8.81-7.56q2-4.23,3.6-8.6,1.2-3.18,2.5-6.26l.05-.31a3.17,3.17,0,0,0-.57-1.72,1,1,0,0,0-.84-.53.89.89,0,0,0-.49.16,2.4,2.4,0,0,0-.42.34,2.48,2.48,0,0,1-.36.31,1,1,0,0,0-.26.24l-.19.21a19.48,19.48,0,0,0-4.32,12.4,8.54,8.54,0,0,0,.93,4.28Z"/><path class="cls-1" d="M97.83,133.2a19.44,19.44,0,0,1-1.35-5.84c-.17-2.22-.26-4.45-.26-6.67q0-2.3.26-10.64l0-.78a17.93,17.93,0,0,1,.21-2.76q0-.42-.36-.42l-.47.1a9.52,9.52,0,0,1-3,.47l-1.35,0c-1.7-.14-2.69-.92-3-2.35l-.06-.41c0-.94,1-1.41,2.87-1.41a4.63,4.63,0,0,1,2.77.94,1,1,0,0,0,.62.26,1.2,1.2,0,0,0,.5-.13,2.78,2.78,0,0,1,.67-.21,2,2,0,0,0,.73-.31,1.08,1.08,0,0,0,.39-.86l.37-3.76c.1-.73.17-1.42.21-2.08a1.68,1.68,0,0,1,1.41-1.62,14.18,14.18,0,0,1,2-.15,9.36,9.36,0,0,1,2.06.23,1.24,1.24,0,0,1,1.07,1.33l-.32,2.71a24.47,24.47,0,0,1-.31,2.45c0,.35,0,.55.13.6a4.73,4.73,0,0,0,1.23.08q4.06,0,4.58,3.28a1.09,1.09,0,0,1-.7,1,3.31,3.31,0,0,1-1.48.34,3.74,3.74,0,0,1-2.82-1.3,2.8,2.8,0,0,1-.29-.37c-.08-.14-.27-.21-.54-.21s-.49,0-.53.16a1.25,1.25,0,0,0,0,.36,27,27,0,0,0-.41,4.12l-.06.78c-.24,3.31-.36,7.11-.36,11.42a41.76,41.76,0,0,0,1.2,10l.21.68.46-.63a3.77,3.77,0,0,1,3.19-2,4.05,4.05,0,0,1,1.38.26c.47.18.7.45.7.83a2.71,2.71,0,0,1-.26.68,15.58,15.58,0,0,1-1.77,3.13,5.12,5.12,0,0,1-3.08,1.88,8.11,8.11,0,0,1-1.77.21A4.82,4.82,0,0,1,97.83,133.2Z"/><path class="cls-1" d="M107.53,133.2a19.14,19.14,0,0,1-1.35-5.84c-.18-2.22-.26-4.45-.26-6.67,0-1.53.08-5.08.26-10.64l0-.78a17.93,17.93,0,0,1,.21-2.76c0-.28-.13-.42-.37-.42l-.47.1a9.41,9.41,0,0,1-3,.47l-1.36,0c-1.7-.14-2.69-.92-3-2.35l0-.41c0-.94,1-1.41,2.87-1.41a4.62,4.62,0,0,1,2.76.94,1,1,0,0,0,.63.26,1.16,1.16,0,0,0,.49-.13,2.87,2.87,0,0,1,.68-.21,2,2,0,0,0,.73-.31,1.08,1.08,0,0,0,.39-.86l.37-3.76c.1-.73.17-1.42.21-2.08a1.66,1.66,0,0,1,1.4-1.62,14.32,14.32,0,0,1,2-.15,9.27,9.27,0,0,1,2.05.23,1.23,1.23,0,0,1,1.07,1.33l-.31,2.71c-.07.83-.17,1.65-.31,2.45,0,.35,0,.55.13.6a4.57,4.57,0,0,0,1.22.08q4.06,0,4.59,3.28a1.09,1.09,0,0,1-.7,1,3.35,3.35,0,0,1-1.49.34,3.72,3.72,0,0,1-2.81-1.3,2.16,2.16,0,0,1-.29-.37.61.61,0,0,0-.55-.21c-.31,0-.48,0-.52.16a1.25,1.25,0,0,0-.05.36,28.34,28.34,0,0,0-.42,4.12l-.05.78c-.24,3.31-.37,7.11-.37,11.42a41.76,41.76,0,0,0,1.2,10l.21.68.47-.63a3.77,3.77,0,0,1,3.18-2,4.05,4.05,0,0,1,1.38.26c.47.18.71.45.71.83a3.19,3.19,0,0,1-.26.68,15.14,15.14,0,0,1-1.78,3.13,5.1,5.1,0,0,1-3.07,1.88,8.18,8.18,0,0,1-1.77.21A4.81,4.81,0,0,1,107.53,133.2Z"/><path class="cls-1" d="M120.72,135.75a6.82,6.82,0,0,1-4.12-5.63,27.5,27.5,0,0,1-.31-4.12,36.6,36.6,0,0,1,1.82-10.79,9,9,0,0,1,1.31-2.4,3.79,3.79,0,0,1,2.71-1,3.46,3.46,0,0,1,2.29.78,2.67,2.67,0,0,1,.58,1.67,36.63,36.63,0,0,1-.58,3.86q-.47,2.51-.78,5a31.73,31.73,0,0,0-.31,4.43,9,9,0,0,0,1.14,5,1,1,0,0,0,.79.52,1.13,1.13,0,0,0,.73-.31,10.07,10.07,0,0,0,4.06-7.09,26.9,26.9,0,0,0,.16-2.92,22.14,22.14,0,0,0-1.36-8.18q-1.92-4.55-6.41-4.54l-1,.11a4.34,4.34,0,0,0-1.1.28,3.54,3.54,0,0,1-1.33.24,3.82,3.82,0,0,1-1.74-.42q-.6-.36-.6-.78c0-.21.17-.44.52-.68a12.53,12.53,0,0,1,7.45-2.29,13,13,0,0,1,5.79,1.35,9.79,9.79,0,0,1,5.16,7.4,26.42,26.42,0,0,1,.42,4.64,24.84,24.84,0,0,1-1.72,9.08,12.51,12.51,0,0,1-4.38,5.94,8.84,8.84,0,0,1-5.16,1.77A9.58,9.58,0,0,1,120.72,135.75Z"/><path class="cls-1" d="M79.29,26.17a1.87,1.87,0,0,0-.67,1.45v19.5A1.88,1.88,0,0,1,76.74,49H74.58a1.89,1.89,0,0,1-1.89-1.88V27.62A1.86,1.86,0,0,0,72,26.17c-2.48-2-5.27-.3-5.27,2.07V47.12A1.88,1.88,0,0,1,64.88,49H62.71a1.88,1.88,0,0,1-1.88-1.88V27.62a1.87,1.87,0,0,0-.67-1.45c-2.48-2-5.26-.3-5.26,2.07V52a14.86,14.86,0,0,0,10.54,14.2A1.85,1.85,0,0,1,66.76,68V89.48h2.6c1.12,0,2.23-.06,3.33-.14V68A1.86,1.86,0,0,1,74,66.17,14.86,14.86,0,0,0,84.56,52V28.24C84.56,25.87,81.77,24.15,79.29,26.17Z"/><path class="cls-1" d="M69.36,91A42.61,42.61,0,1,1,112,48.41,42.65,42.65,0,0,1,69.36,91Zm0-82.15A39.55,39.55,0,1,0,108.9,48.41,39.59,39.59,0,0,0,69.36,8.86Z"/></svg>