<svg id="Capa_1" data-name="Capa 1" xmlns="http://www.w3.org/2000/svg" viewBox="0 0 235.8 75.43"><defs><style>.cls-1{fill:#111319;}</style></defs><path class="cls-1" d="M87.1,57.82a49.35,49.35,0,0,1-.91-7.41q-.5-5.58-.49-11.35l.06-3-.06-2.49q0-7.09.91-18.27c.13-1.13.24-2.25.34-3.37a1.72,1.72,0,0,1,1.67-1.79A19.37,19.37,0,0,1,90.74,10a16.44,16.44,0,0,1,4.49.61,1.61,1.61,0,0,1,1.46,1.7c-.12,1.37-.28,2.73-.49,4.06-.28,2.19-.5,4.37-.66,6.56l-.25,3.4q-.72,8.07-.72,18.21v7.65a30.31,30.31,0,0,0,.36,4.67c0,.44.18.67.42.67L97.84,57c1.54-.32,3.1-.61,4.68-.85l.6-.12a19.5,19.5,0,0,1,4.92-.61,4.2,4.2,0,0,1,2.13.49c.4.24.6.5.6.79s-.2.5-.6.79a5.19,5.19,0,0,1-2,.54q-4.48.55-12.38,2.31l-1.85.39A8.23,8.23,0,0,1,92,61C89.22,61,87.59,59.92,87.1,57.82Z"/><path class="cls-1" d="M117.84,59.88a8.58,8.58,0,0,1-3.43-3.34,18.09,18.09,0,0,1-2.18-7.64L112,45.19l.12-1.7a40.75,40.75,0,0,1,1.27-9.65,22.48,22.48,0,0,1,1-2.73q2.85-5.22,8.2-5.22a8.45,8.45,0,0,1,1.76.19A17.4,17.4,0,0,1,129,27.29q3.83,1.82,3.82,5.46a7.91,7.91,0,0,1-.18,1.64q-1.87,8.86-10.74,11.11l-.36.12A4.84,4.84,0,0,0,120,46a.91.91,0,0,0-.4.88,19,19,0,0,0,2.61,8.5c.53.89,1,1.34,1.4,1.34s.77-.47,1.21-1.4a16.56,16.56,0,0,0,1.4-3.52A2,2,0,0,1,128,50.17a5.77,5.77,0,0,1,1.39-.18,5.49,5.49,0,0,1,1.83.3,1.08,1.08,0,0,1,.84,1,1.38,1.38,0,0,1-.12.48,4.35,4.35,0,0,0-.18.55,20,20,0,0,1-2,4.37,8.4,8.4,0,0,1-3.28,3.15,8.88,8.88,0,0,1-4.28,1.1A9.26,9.26,0,0,1,117.84,59.88Zm2.76-17.17q5.16-2.31,6.5-8.81l.12-1A4.45,4.45,0,0,0,126,29.78a2.22,2.22,0,0,0-1.22-.61c-.65,0-1.23.51-1.76,1.52a22.46,22.46,0,0,0-3.4,12c0,.24.08.36.25.36A2,2,0,0,0,120.6,42.71Z"/><path class="cls-1" d="M136.29,60.46A2.74,2.74,0,0,1,134.93,59a13.22,13.22,0,0,1-.7-3.15c-.1-1.05-.15-2.41-.15-4.07l.06-4.49V45.56a88,88,0,0,1,1-14.63,1.83,1.83,0,0,1,1.7-1.7,15.79,15.79,0,0,1,1.94-.12,14.8,14.8,0,0,1,3.58.43,1.73,1.73,0,0,1,1.4,1.94c-.16,1.41-.39,2.81-.67,4.19l-.48,2.61a2.83,2.83,0,0,1-.13.81,6.92,6.92,0,0,0-.12,1.55,36.86,36.86,0,0,1,3.71-6.49,7.18,7.18,0,0,1,6.07-3.28q4.79,0,5.4,4.07.48,2.61,1.15,5.4a2.16,2.16,0,0,1,.12.67c0,.69-.42,1.11-1.27,1.27a7.23,7.23,0,0,1-2.13.37,5.74,5.74,0,0,1-5-3.1L149.56,38a93.64,93.64,0,0,0-6.74,18.27Q141.19,61,138.39,61A4.59,4.59,0,0,1,136.29,60.46Z"/><path class="cls-1" d="M178,62.25a23.71,23.71,0,0,1-1.21-6.74c-.12-2-.21-4-.25-6l-.12-2.91-1.21,3q-2.31,6.43-5.28,8.31a6.81,6.81,0,0,1-3.58.91c-3,0-4.82-1.41-5.59-4.13a22.18,22.18,0,0,1-.66-5.34l.06-2.24a29.31,29.31,0,0,1,2-9.23,14.75,14.75,0,0,1,3.95-5.83,8.32,8.32,0,0,1,5.58-2.18h1a15.67,15.67,0,0,1,2.55.21,6.59,6.59,0,0,1,2.49,1q.42-3.15,3-3.15a9.45,9.45,0,0,1,1.4.12l.42.06q3.59.06,3.58,3a36.27,36.27,0,0,1-.6,5.34l-.12,1A87.62,87.62,0,0,0,184,52.66c0,1.42,0,2.85.12,4.31l.06,1a27.4,27.4,0,0,0,.55,3.76c0,.45-.71,1-2.13,1.64a4.54,4.54,0,0,1-2,.43A2.44,2.44,0,0,1,178,62.25Zm-10.26-8.8q2.31-4.92,4.19-10,1.4-3.69,2.91-7.28l.07-.36a3.76,3.76,0,0,0-.67-2,1.21,1.21,0,0,0-1-.6,1,1,0,0,0-.58.18,3.81,3.81,0,0,0-.49.39,2.79,2.79,0,0,1-.42.37,1.39,1.39,0,0,0-.3.27,2.4,2.4,0,0,1-.22.24,22.68,22.68,0,0,0-5,14.45,9.88,9.88,0,0,0,1.09,5Z"/><path class="cls-1" d="M188.34,56.91a22.41,22.41,0,0,1-1.58-6.8q-.3-3.88-.3-7.77,0-2.67.3-12.38l.06-.91a20.27,20.27,0,0,1,.25-3.22c0-.32-.15-.48-.43-.48l-.55.12a11.32,11.32,0,0,1-3.46.54L181.06,26q-3-.24-3.46-2.73l-.06-.48c0-1.09,1.11-1.64,3.33-1.64a5.39,5.39,0,0,1,3.22,1.09,1.15,1.15,0,0,0,.73.3,1.5,1.5,0,0,0,.58-.15,3.59,3.59,0,0,1,.78-.24,2.32,2.32,0,0,0,.86-.36,1.3,1.3,0,0,0,.45-1l.42-4.37a24.26,24.26,0,0,0,.25-2.42,1.94,1.94,0,0,1,1.64-1.88,14.81,14.81,0,0,1,2.36-.19,10.73,10.73,0,0,1,2.4.28,1.43,1.43,0,0,1,1.25,1.54l-.37,3.16q-.12,1.45-.36,2.85c0,.41,0,.64.15.7a5.45,5.45,0,0,0,1.43.09c3.15,0,4.93,1.28,5.34,3.82a1.27,1.27,0,0,1-.82,1.19,4,4,0,0,1-1.73.39,4.31,4.31,0,0,1-3.28-1.51,2.88,2.88,0,0,1-.33-.43.72.72,0,0,0-.64-.24c-.37,0-.57.06-.61.18a1.33,1.33,0,0,0-.06.42,32,32,0,0,0-.48,4.8L194,30q-.42,5.77-.42,13.29a48.2,48.2,0,0,0,1.4,11.6l.24.79.54-.73a4.4,4.4,0,0,1,3.71-2.31,4.71,4.71,0,0,1,1.61.3c.54.21.82.53.82,1a3.88,3.88,0,0,1-.31.78,18,18,0,0,1-2.06,3.65,5.93,5.93,0,0,1-3.58,2.18,9.68,9.68,0,0,1-2.07.24A5.58,5.58,0,0,1,188.34,56.91Z"/><path class="cls-1" d="M199.63,56.91a22.41,22.41,0,0,1-1.58-6.8q-.3-3.88-.3-7.77,0-2.67.3-12.38l.06-.91a21.51,21.51,0,0,1,.24-3.22q0-.48-.42-.48l-.55.12a11.32,11.32,0,0,1-3.46.54L192.34,26q-3-.24-3.46-2.73l-.06-.48c0-1.09,1.12-1.64,3.34-1.64a5.39,5.39,0,0,1,3.22,1.09,1.15,1.15,0,0,0,.73.3,1.42,1.42,0,0,0,.57-.15,3.88,3.88,0,0,1,.79-.24,2.21,2.21,0,0,0,.85-.36,1.28,1.28,0,0,0,.46-1l.42-4.37a24.26,24.26,0,0,0,.25-2.42,1.94,1.94,0,0,1,1.64-1.88,14.71,14.71,0,0,1,2.36-.19,10.73,10.73,0,0,1,2.4.28,1.42,1.42,0,0,1,1.24,1.54l-.36,3.16q-.12,1.45-.36,2.85c0,.41,0,.64.15.7a5.35,5.35,0,0,0,1.42.09c3.16,0,4.94,1.28,5.34,3.82a1.26,1.26,0,0,1-.81,1.19,4,4,0,0,1-1.73.39,4.31,4.31,0,0,1-3.28-1.51,2.93,2.93,0,0,1-.34-.43.69.69,0,0,0-.63-.24c-.37,0-.57.06-.61.18a1.33,1.33,0,0,0-.06.42,32,32,0,0,0-.49,4.8l-.06.91q-.42,5.77-.42,13.29a48.7,48.7,0,0,0,1.39,11.6l.25.79L207,55a4.39,4.39,0,0,1,3.71-2.31,4.61,4.61,0,0,1,1.6.3c.55.21.82.53.82,1a3.47,3.47,0,0,1-.3.78,18,18,0,0,1-2.06,3.65,5.93,5.93,0,0,1-3.58,2.18,9.68,9.68,0,0,1-2.07.24A5.58,5.58,0,0,1,199.63,56.91Z"/><path class="cls-1" d="M215,59.88a7.92,7.92,0,0,1-4.79-6.55,32.75,32.75,0,0,1-.37-4.8A42.23,42.23,0,0,1,212,36a10.22,10.22,0,0,1,1.52-2.79A4.39,4.39,0,0,1,216.62,32a4,4,0,0,1,2.67.91,3.06,3.06,0,0,1,.67,2,40,40,0,0,1-.67,4.49q-.54,2.91-.91,5.82a37.73,37.73,0,0,0-.36,5.16c0,2.63.44,4.6,1.33,5.89a1.17,1.17,0,0,0,.92.61,1.26,1.26,0,0,0,.84-.37,11.74,11.74,0,0,0,4.74-8.25,33.44,33.44,0,0,0,.18-3.4,25.81,25.81,0,0,0-1.58-9.53Q222.22,30,217,30l-1.13.12a4.64,4.64,0,0,0-1.27.34,4.27,4.27,0,0,1-1.55.27,4.22,4.22,0,0,1-2-.49c-.47-.28-.7-.58-.7-.91s.2-.5.61-.79a14.62,14.62,0,0,1,8.68-2.67,15.12,15.12,0,0,1,6.73,1.58,11.38,11.38,0,0,1,6,8.62,30.21,30.21,0,0,1,.49,5.4,29.06,29.06,0,0,1-2,10.56,14.61,14.61,0,0,1-5.1,6.92,10.26,10.26,0,0,1-6,2.07A11.23,11.23,0,0,1,215,59.88Z"/><polygon class="cls-1" points="41.14 72.19 41.15 72.19 41.15 72.17 41.14 72.17 41.14 72.19"/><path class="cls-1" d="M73.51,37.19a35.12,35.12,0,1,0-37.26,35V53.31a1.55,1.55,0,0,0-1.09-1.48,12.25,12.25,0,0,1-8.69-11.7V20.58a2.53,2.53,0,0,1,4.34-1.71,1.55,1.55,0,0,1,.55,1.19V36.13a1.55,1.55,0,0,0,1.55,1.56H34.7a1.56,1.56,0,0,0,1.56-1.56V20.58c0-2,2.29-3.38,4.34-1.71a1.54,1.54,0,0,1,.54,1.19V36.13a1.56,1.56,0,0,0,1.56,1.56h1.78A1.55,1.55,0,0,0,46,36.13V20.06a1.55,1.55,0,0,1,.55-1.19c2.05-1.67,4.34-.25,4.34,1.71V40.13a12.24,12.24,0,0,1-8.69,11.7,1.55,1.55,0,0,0-1.09,1.48V72.17A35.14,35.14,0,0,0,73.51,37.19Z"/></svg>